<?xml version="1.0" encoding="utf-8"?>
<!-- Generator: Adobe Illustrator 17.0.0, SVG Export Plug-In . SVG Version: 6.00 Build 0)  -->
<!DOCTYPE svg PUBLIC "-//W3C//DTD SVG 1.0//EN" "http://www.w3.org/TR/2001/REC-SVG-20010904/DTD/svg10.dtd">
<svg version="1.0" id="Layer_1" xmlns="http://www.w3.org/2000/svg" xmlns:xlink="http://www.w3.org/1999/xlink" x="0px" y="0px"
	 width="1200px" height="630px" viewBox="0 0 1200 630" enable-background="new 0 0 1200 630" xml:space="preserve">
<path fill="#0BBBBB" d="M456.531,224.688h4h5.969h4v-4V214c-2.209,0-4,1.792-4,4.001v2.687h-5.969v-3.625l-2-2.542l-2,2.542v3.625
	h-5.969v-2.687c0-2.209-1.791-4.001-4-4.001v6.688v4h4H456.531z"/>
<path fill="#0BBBBB" d="M485.75,358.625h-21V237.5l-6-3l-6,3v121.125h-21.657V237.5l-12-7v22.52
	c-6.715,2.789-20.606,9.507-34.558,22.048C366.956,290.87,346,319.251,346,364.719v6l73.093,0.094h12h66.5v-0.094h0.157V230.5l-12,7
	V358.625z M358.131,358.719c1.332-30.086,12.776-55.096,34.07-74.405c10.034-9.097,20.173-14.878,26.892-18.121v92.432h-60.5
	l-0.045,0.094H358.131z"/>
<path fill="#0BBBBB" d="M820.151,262.567c-0.759,2.594-1.595,5.152-2.503,7.674c-18.75,52.013-68.747,88.072-125.398,88.072
	c-72.086,0-130.416-56.012-133-127.999H506v140.499h12V242.313h29.25v128.406L690,370.313v-0.027c0.75,0.012,1.499,0.027,2.25,0.027
	c68.915,0,128.797-48.959,142.387-116.414C828.295,252.621,821.969,256.359,820.151,262.567 M559.25,358.719v-75.135
	c7.5,17.038,18.306,32.626,32.053,45.916c12.938,12.508,27.827,22.339,43.953,29.219H559.25z"/>
<path fill="#0BBBBB" d="M820.75,345.813c-6.766,0-12.25,5.484-12.25,12.25s5.484,12.25,12.25,12.25c6.766,0,12.25-5.484,12.25-12.25
	S827.516,345.813,820.75,345.813"/>
<path display="none" fill="#78CDD1" d="M559.25,358.719v-75.135c7.5,17.038,18.306,32.626,32.053,45.916
	c12.938,12.508,27.827,22.339,43.953,29.219H559.25z"/>
<path display="none" fill="#78CDD1" d="M358.131,358.719c1.332-30.086,12.776-55.096,34.07-74.405
	c10.034-9.097,20.173-14.878,26.892-18.121v92.432h-60.5l-0.045,0.094H358.131z"/>
<g>
	
		<text transform="matrix(1 0 0 1 342.1045 439.7871)" fill="#0BBBBB" font-family="'Roboto-Bold'" font-size="69.4998" letter-spacing="11">Developers</text>
</g>
<g display="none">
	<g display="inline">
		<g>
			<g>
				<path fill="#0BBBBB" d="M726.026,581.483h-6.896v-39.772l-1.97-0.985l-1.97,0.985v39.772h-7.111v-39.772l-3.94-2.298v7.394
					c-2.205,0.916-6.766,3.122-11.347,7.24c-5.772,5.189-12.653,14.508-12.653,29.437v1.97l24.001,0.031h3.94h21.836v-0.031h0.051
					v-46.041l-3.94,2.298V581.483z M684.122,581.514c0.437-9.879,4.195-18.091,11.187-24.431c3.294-2.987,6.624-4.885,8.83-5.95
					v30.351h-19.865l-0.015,0.031H684.122z"/>
			</g>
		</g>
		<g>
			<g>
				<path fill="#0BBBBB" d="M835.828,549.942c-0.249,0.852-0.524,1.692-0.822,2.52c-6.157,17.079-22.573,28.919-41.175,28.919
					c-23.67,0-42.822-18.392-43.671-42.029h-17.485v46.134h3.94v-42.193h9.604v42.163l46.872-0.133v-0.009
					c0.246,0.004,0.492,0.009,0.739,0.009c22.629,0,42.291-16.076,46.753-38.225C838.503,546.676,836.425,547.904,835.828,549.942z
					 M750.16,581.514v-24.671c2.463,5.595,6.011,10.713,10.525,15.077c4.248,4.107,9.137,7.335,14.432,9.594H750.16z"/>
			</g>
		</g>
		<g>
			<path fill="#0BBBBB" d="M716.432,537.504h1.313h1.96h1.314v-1.313v-2.196c-0.725,0-1.314,0.588-1.314,1.313v0.882h-1.96v-1.19
				l-0.657-0.834l-0.657,0.834v1.19h-1.96v-0.882c0-0.725-0.588-1.313-1.313-1.313v2.196v1.313h1.313H716.432z"/>
		</g>
		<g>
			<circle fill="#0BBBBB" cx="836.025" cy="581.299" r="4.022"/>
		</g>
		<g>
			<g>
				<path fill="#0BBBBB" d="M680.135,589.044h6.704c4.308,0,6.957,3.271,6.957,8.04c0,3.709-1.613,8.501-7.049,8.501h-6.612V589.044
					z M682.37,603.673h4.331c2.903,0,4.792-2.281,4.792-6.45c0-4.17-1.912-6.266-4.953-6.266h-4.17V603.673z"/>
				<path fill="#0BBBBB" d="M710.312,601.807c-0.069,0.576-0.622,2.281-2.142,3.294c-0.553,0.369-1.336,0.83-3.271,0.83
					c-3.387,0-5.391-2.557-5.391-6.036c0-3.732,1.797-6.704,5.782-6.704c3.479,0,5.183,2.764,5.183,7.026h-8.8
					c0,2.511,1.175,3.963,3.502,3.963c1.912,0,3.041-1.474,3.11-2.373H710.312z M708.377,598.605
					c-0.115-1.866-0.898-3.594-3.363-3.594c-1.866,0-3.341,1.728-3.341,3.594H708.377z"/>
				<path fill="#0BBBBB" d="M723.511,593.537h2.212l-4.584,12.048h-2.165l-4.4-12.048h2.35l3.133,9.814h0.046L723.511,593.537z"/>
				<path fill="#0BBBBB" d="M740.742,601.807c-0.069,0.576-0.622,2.281-2.142,3.294c-0.553,0.369-1.336,0.83-3.271,0.83
					c-3.386,0-5.391-2.557-5.391-6.036c0-3.732,1.797-6.704,5.782-6.704c3.479,0,5.183,2.764,5.183,7.026h-8.8
					c0,2.511,1.175,3.963,3.502,3.963c1.912,0,3.041-1.474,3.11-2.373H740.742z M738.807,598.605
					c-0.115-1.866-0.898-3.594-3.363-3.594c-1.866,0-3.34,1.728-3.34,3.594H738.807z"/>
				<path fill="#0BBBBB" d="M749.08,605.585h-2.027v-16.541h2.027V605.585z"/>
				<path fill="#0BBBBB" d="M760.713,593.191c3.847,0,5.598,3.248,5.598,6.358c0,3.11-1.751,6.358-5.598,6.358
					c-3.847,0-5.598-3.248-5.598-6.358C755.115,596.439,756.866,593.191,760.713,593.191z M760.713,604.157
					c2.903,0,3.502-2.995,3.502-4.607s-0.599-4.608-3.502-4.608c-2.903,0-3.502,2.995-3.502,4.608S757.81,604.157,760.713,604.157z"
					/>
				<path fill="#0BBBBB" d="M772.138,593.537h1.912v1.705h0.046c0.484-0.691,1.405-2.05,3.594-2.05c3.202,0,5.022,2.626,5.022,6.013
					c0,2.88-1.198,6.727-5.299,6.727c-1.613,0-2.672-0.76-3.202-1.613h-0.046v6.036h-2.027V593.537z M777.367,604.18
					c2.212,0,3.248-2.004,3.248-4.654c0-1.543-0.161-4.515-3.294-4.515c-2.926,0-3.248,3.156-3.248,5.114
					C774.073,603.328,776.077,604.18,777.367,604.18z"/>
				<path fill="#0BBBBB" d="M799.021,601.807c-0.069,0.576-0.622,2.281-2.142,3.294c-0.553,0.369-1.336,0.83-3.271,0.83
					c-3.386,0-5.391-2.557-5.391-6.036c0-3.732,1.797-6.704,5.782-6.704c3.478,0,5.183,2.764,5.183,7.026h-8.8
					c0,2.511,1.175,3.963,3.501,3.963c1.912,0,3.041-1.474,3.11-2.373H799.021z M797.086,598.605
					c-0.115-1.866-0.898-3.594-3.364-3.594c-1.866,0-3.34,1.728-3.34,3.594H797.086z"/>
				<path fill="#0BBBBB" d="M807.59,605.585h-2.027v-12.048h1.912v2.004h0.046c0.806-1.405,1.866-2.35,3.386-2.35
					c0.253,0,0.368,0.023,0.53,0.069v2.096h-0.76c-1.889,0-3.087,1.474-3.087,3.225V605.585z"/>
				<path fill="#0BBBBB" d="M823.024,596.969c-0.023-0.76-0.299-2.027-2.856-2.027c-0.622,0-2.396,0.208-2.396,1.705
					c0,0.99,0.622,1.221,2.189,1.613l2.027,0.507c2.511,0.622,3.387,1.544,3.387,3.179c0,2.488-2.051,3.986-4.769,3.986
					c-4.769,0-5.114-2.765-5.183-4.216h1.958c0.069,0.945,0.345,2.465,3.202,2.465c1.451,0,2.764-0.576,2.764-1.912
					c0-0.967-0.668-1.29-2.396-1.728l-2.35-0.576c-1.682-0.415-2.788-1.267-2.788-2.926c0-2.649,2.189-3.847,4.561-3.847
					c4.308,0,4.607,3.179,4.607,3.778H823.024z"/>
			</g>
		</g>
	</g>
</g>
</svg>
