<?xml version="1.0" encoding="utf-8"?>
<!-- Generator: Adobe Illustrator 17.0.0, SVG Export Plug-In . SVG Version: 6.00 Build 0)  -->
<!DOCTYPE svg PUBLIC "-//W3C//DTD SVG 1.0//EN" "http://www.w3.org/TR/2001/REC-SVG-20010904/DTD/svg10.dtd">
<svg version="1.0" id="Layer_1" xmlns="http://www.w3.org/2000/svg" xmlns:xlink="http://www.w3.org/1999/xlink" x="0px" y="0px"
	 width="260.328px" height="135.291px" viewBox="0 0 260.328 135.291" enable-background="new 0 0 260.328 135.291"
	 xml:space="preserve">
<g>
	<defs>
		<rect id="SVGID_1_" width="260.328" height="135.291"/>
	</defs>
	<clipPath id="SVGID_2_">
		<use xlink:href="#SVGID_1_"  overflow="visible"/>
	</clipPath>
	<path clip-path="url(#SVGID_2_)" fill="#754C28" d="M36.127,80.909v18.402h-8.403V72.506
		C32.365,72.506,36.127,76.268,36.127,80.909"/>
	<path clip-path="url(#SVGID_2_)" fill="#754C28" d="M98.827,80.909v18.402h-8.403V72.506
		C95.065,72.506,98.827,76.268,98.827,80.909"/>
	<path clip-path="url(#SVGID_2_)" fill="#754C28" d="M55.72,81.07h-7.231v-1.455c0-1.238-0.071-2.023-0.212-2.353
		c-0.141-0.329-0.495-0.495-1.061-0.495c-0.458,0-0.801,0.152-1.03,0.455c-0.229,0.303-0.343,0.757-0.343,1.363
		c0,0.822,0.057,1.424,0.171,1.808c0.115,0.384,0.458,0.805,1.03,1.262c0.573,0.459,1.748,1.125,3.525,2
		c2.37,1.159,3.926,2.25,4.666,3.273c0.741,1.023,1.111,2.512,1.111,4.464c0,2.182-0.283,3.828-0.848,4.939
		c-0.566,1.111-1.512,1.967-2.838,2.566c-1.327,0.598-2.926,0.898-4.797,0.898c-2.074,0-3.849-0.323-5.323-0.97
		c-1.475-0.646-2.488-1.521-3.04-2.626c-0.552-1.104-0.828-2.774-0.828-5.009v-1.292h7.231v1.696c0,1.441,0.091,2.377,0.273,2.808
		s0.542,0.647,1.081,0.647c0.578,0,0.983-0.145,1.212-0.435c0.228-0.29,0.343-0.899,0.343-1.828c0-1.279-0.149-2.081-0.445-2.404
		c-0.31-0.323-1.892-1.279-4.747-2.868c-2.397-1.347-3.858-2.569-4.382-3.666c-0.526-1.098-0.789-2.401-0.789-3.909
		c0-2.141,0.283-3.72,0.849-4.737c0.565-1.017,1.525-1.801,2.878-2.353c1.354-0.552,2.926-0.828,4.717-0.828
		c1.778,0,3.289,0.225,4.535,0.676c1.245,0.452,2.202,1.047,2.868,1.788c0.667,0.741,1.07,1.428,1.212,2.06
		c0.142,0.633,0.212,1.623,0.212,2.97V81.07z"/>
	<path clip-path="url(#SVGID_2_)" fill="#754C28" d="M66.588,72.505l-0.142,2.55c0.633-1.011,1.388-1.77,2.263-2.276
		c0.875-0.505,1.872-0.758,2.99-0.758c2.181,0,3.898,1.011,5.151,3.034c0.686-1.011,1.461-1.77,2.322-2.276
		c0.862-0.505,1.818-0.758,2.869-0.758c1.386,0,2.535,0.336,3.444,1.009c0.909,0.674,1.491,1.498,1.747,2.475
		c0.256,0.977,0.384,2.562,0.384,4.757V99.31h-7.918V81.838c0-2.29-0.078-3.707-0.233-4.252c-0.154-0.546-0.515-0.819-1.081-0.819
		c-0.578,0-0.952,0.27-1.121,0.808c-0.168,0.539-0.252,1.96-0.252,4.263V99.31h-7.918V82.282c0-2.626-0.064-4.202-0.192-4.727
		c-0.128-0.525-0.481-0.788-1.061-0.788c-0.363,0-0.673,0.139-0.929,0.414c-0.256,0.277-0.397,0.614-0.424,1.011
		c-0.027,0.397-0.041,1.242-0.041,2.534V99.31h-7.918V72.505H66.588z"/>
	<path clip-path="url(#SVGID_2_)" fill="#754C28" d="M110.159,75.01v24.3h-8.403V66.607
		C106.397,66.607,110.159,70.369,110.159,75.01"/>
	<path clip-path="url(#SVGID_2_)" fill="#754C28" d="M121.491,75.01v24.3h-8.403V66.607
		C117.729,66.607,121.491,70.369,121.491,75.01"/>
	<path clip-path="url(#SVGID_2_)" fill="#754C28" d="M131.712,82.888h-7.656V81.09c0-2.074,0.24-3.672,0.718-4.797
		c0.478-1.125,1.437-2.118,2.879-2.98c1.44-0.861,3.312-1.292,5.615-1.292c2.76,0,4.841,0.488,6.241,1.464
		c1.401,0.976,2.243,2.175,2.525,3.595c0.283,1.421,0.425,4.347,0.425,8.777V99.31h-7.939v-2.388
		c-0.498,0.957-1.141,1.676-1.929,2.155c-0.788,0.479-1.727,0.718-2.818,0.718c-1.428,0-2.737-0.401-3.929-1.202
		c-1.191-0.801-1.788-2.555-1.788-5.262v-2.202c0-2.006,0.317-3.373,0.95-4.1c0.633-0.728,2.202-1.576,4.707-2.546
		c2.679-1.05,4.113-1.757,4.302-2.12c0.189-0.364,0.283-1.105,0.283-2.222c0-1.401-0.104-2.313-0.313-2.738
		c-0.209-0.424-0.556-0.636-1.041-0.636c-0.552,0-0.896,0.179-1.03,0.535C131.779,77.66,131.712,82.888,131.712,82.888
		 M134.298,86.564c-1.307,0.957-2.064,1.758-2.272,2.404c-0.209,0.646-0.314,1.575-0.314,2.787c0,1.388,0.091,2.283,0.273,2.687
		c0.182,0.404,0.542,0.606,1.081,0.606c0.511,0,0.845-0.158,1-0.474c0.154-0.317,0.232-1.149,0.232-2.495V86.564z"/>
	<path clip-path="url(#SVGID_2_)" fill="#754C28" d="M36.79,65.218c0,2.687-2.178,4.865-4.865,4.865s-4.865-2.178-4.865-4.865
		c0-2.687,2.178-4.865,4.865-4.865S36.79,62.531,36.79,65.218"/>
	<path clip-path="url(#SVGID_2_)" fill="#754C28" d="M99.491,65.218c0,2.687-2.178,4.865-4.865,4.865
		c-2.687,0-4.865-2.178-4.865-4.865c0-2.687,2.178-4.865,4.865-4.865C97.313,60.353,99.491,62.531,99.491,65.218"/>
	<polygon clip-path="url(#SVGID_2_)" fill="#754C28" points="12.774,104.006 12.774,112.52 10.803,112.52 10.803,109.029 
		6.935,109.029 6.935,112.52 4.965,112.52 4.965,104.006 6.935,104.006 6.935,107.363 10.803,107.363 10.803,104.006 	"/>
	<path clip-path="url(#SVGID_2_)" fill="#754C28" d="M19.445,112.094c-0.71-0.382-1.266-0.907-1.667-1.575
		c-0.401-0.67-0.602-1.421-0.602-2.256c0-0.835,0.201-1.588,0.602-2.257c0.401-0.669,0.957-1.194,1.667-1.575
		c0.709-0.381,1.505-0.572,2.39-0.572c0.883,0,1.678,0.191,2.383,0.572c0.706,0.381,1.262,0.906,1.667,1.575
		c0.406,0.669,0.608,1.422,0.608,2.257c0,0.835-0.202,1.586-0.608,2.256c-0.405,0.668-0.961,1.193-1.667,1.575
		c-0.705,0.38-1.5,0.572-2.383,0.572C20.95,112.667,20.154,112.475,19.445,112.094 M23.198,110.641
		c0.405-0.23,0.724-0.553,0.955-0.967c0.231-0.413,0.346-0.883,0.346-1.41c0-0.528-0.115-0.998-0.346-1.412
		c-0.231-0.414-0.55-0.735-0.955-0.967c-0.406-0.231-0.86-0.346-1.362-0.346c-0.503,0-0.957,0.115-1.363,0.346
		c-0.405,0.232-0.723,0.553-0.954,0.967c-0.232,0.414-0.347,0.884-0.347,1.412c0,0.527,0.115,0.997,0.347,1.41
		c0.231,0.414,0.549,0.737,0.954,0.967c0.406,0.231,0.86,0.347,1.363,0.347C22.337,110.988,22.792,110.872,23.198,110.641"/>
	<path clip-path="url(#SVGID_2_)" fill="#754C28" d="M31.839,111.656c-0.677-0.673-1.016-1.634-1.016-2.882v-4.768h1.971v4.695
		c0,1.524,0.632,2.286,1.897,2.286c0.616,0,1.087-0.184,1.411-0.553c0.324-0.369,0.487-0.947,0.487-1.733v-4.695h1.946v4.768
		c0,1.248-0.339,2.209-1.015,2.882c-0.678,0.673-1.624,1.01-2.841,1.01C33.463,112.666,32.516,112.329,31.839,111.656"/>
	<path clip-path="url(#SVGID_2_)" fill="#754C28" d="M44.246,112.393c-0.629-0.183-1.133-0.42-1.514-0.711l0.669-1.485
		c0.365,0.268,0.798,0.483,1.301,0.645c0.502,0.162,1.005,0.243,1.508,0.243c0.56,0,0.973-0.083,1.241-0.249
		s0.401-0.387,0.401-0.663c0-0.203-0.079-0.371-0.237-0.505c-0.158-0.133-0.361-0.241-0.608-0.322
		c-0.247-0.081-0.582-0.171-1.004-0.267c-0.649-0.154-1.179-0.309-1.593-0.463c-0.414-0.154-0.768-0.402-1.064-0.742
		c-0.296-0.341-0.444-0.794-0.444-1.362c0-0.495,0.134-0.943,0.401-1.344c0.268-0.402,0.672-0.719,1.211-0.955
		c0.539-0.235,1.197-0.353,1.976-0.353c0.543,0,1.074,0.065,1.593,0.195c0.519,0.13,0.974,0.316,1.363,0.559l-0.609,1.497
		c-0.786-0.447-1.573-0.67-2.359-0.67c-0.552,0-0.959,0.09-1.222,0.268c-0.264,0.179-0.396,0.413-0.396,0.706
		c0,0.291,0.152,0.508,0.456,0.65c0.305,0.142,0.768,0.283,1.393,0.42c0.648,0.154,1.18,0.308,1.593,0.462
		c0.414,0.154,0.769,0.398,1.065,0.73c0.296,0.333,0.443,0.782,0.443,1.35c0,0.487-0.135,0.931-0.407,1.332
		c-0.272,0.401-0.679,0.72-1.222,0.954c-0.543,0.236-1.205,0.354-1.983,0.354C45.525,112.667,44.874,112.575,44.246,112.393"/>
	<rect x="54.079" y="104.006" clip-path="url(#SVGID_2_)" fill="#754C28" width="1.97" height="8.514"/>
	<polygon clip-path="url(#SVGID_2_)" fill="#754C28" points="68.797,104.006 68.797,112.52 67.179,112.52 62.935,107.351 
		62.935,112.52 60.988,112.52 60.988,104.006 62.618,104.006 66.851,109.175 66.851,104.006 	"/>
	<path clip-path="url(#SVGID_2_)" fill="#754C28" d="M79.489,108.129h1.8v3.454c-0.462,0.349-0.997,0.617-1.606,0.803
		c-0.608,0.186-1.22,0.28-1.836,0.28c-0.884,0-1.679-0.189-2.384-0.566c-0.706-0.377-1.259-0.9-1.661-1.569
		c-0.401-0.67-0.602-1.425-0.602-2.268c0-0.843,0.201-1.6,0.602-2.269c0.402-0.669,0.959-1.192,1.673-1.569
		c0.713-0.378,1.516-0.566,2.408-0.566c0.746,0,1.423,0.126,2.032,0.377c0.608,0.252,1.118,0.617,1.532,1.095l-1.265,1.168
		c-0.608-0.641-1.342-0.961-2.202-0.961c-0.543,0-1.026,0.114-1.447,0.341c-0.421,0.227-0.75,0.547-0.985,0.96
		c-0.236,0.414-0.353,0.888-0.353,1.424c0,0.527,0.117,0.997,0.353,1.41c0.235,0.414,0.561,0.737,0.979,0.967
		c0.418,0.232,0.894,0.347,1.429,0.347c0.568,0,1.078-0.122,1.533-0.365V108.129z"/>
	<path clip-path="url(#SVGID_2_)" fill="#754C28" d="M93.239,112.393c-0.629-0.183-1.133-0.42-1.514-0.711l0.668-1.485
		c0.366,0.268,0.799,0.483,1.302,0.645c0.502,0.162,1.005,0.243,1.508,0.243c0.559,0,0.973-0.083,1.241-0.249
		c0.268-0.166,0.401-0.387,0.401-0.663c0-0.203-0.079-0.371-0.237-0.505c-0.158-0.133-0.361-0.241-0.608-0.322
		c-0.247-0.081-0.582-0.171-1.004-0.267c-0.649-0.154-1.179-0.309-1.593-0.463c-0.414-0.154-0.768-0.402-1.064-0.742
		c-0.296-0.341-0.444-0.794-0.444-1.362c0-0.495,0.134-0.943,0.401-1.344c0.268-0.402,0.671-0.719,1.211-0.955
		c0.539-0.235,1.197-0.353,1.976-0.353c0.543,0,1.074,0.065,1.593,0.195c0.519,0.13,0.974,0.316,1.363,0.559l-0.609,1.497
		c-0.786-0.447-1.573-0.67-2.359-0.67c-0.552,0-0.959,0.09-1.222,0.268c-0.264,0.179-0.396,0.413-0.396,0.706
		c0,0.291,0.152,0.508,0.456,0.65c0.305,0.142,0.768,0.283,1.393,0.42c0.648,0.154,1.18,0.308,1.593,0.462
		c0.414,0.154,0.769,0.398,1.065,0.73c0.296,0.333,0.443,0.782,0.443,1.35c0,0.487-0.135,0.931-0.407,1.332
		c-0.272,0.401-0.679,0.72-1.222,0.954c-0.543,0.236-1.205,0.354-1.983,0.354C94.518,112.667,93.867,112.575,93.239,112.393"/>
	<path clip-path="url(#SVGID_2_)" fill="#754C28" d="M104.806,112.094c-0.71-0.382-1.266-0.907-1.666-1.575
		c-0.402-0.67-0.603-1.421-0.603-2.256c0-0.835,0.201-1.588,0.603-2.257c0.4-0.669,0.956-1.194,1.666-1.575
		c0.71-0.381,1.506-0.572,2.39-0.572c0.883,0,1.678,0.191,2.384,0.572c0.705,0.381,1.261,0.906,1.666,1.575
		c0.406,0.669,0.608,1.422,0.608,2.257c0,0.835-0.202,1.586-0.608,2.256c-0.405,0.668-0.961,1.193-1.666,1.575
		c-0.706,0.38-1.501,0.572-2.384,0.572C106.312,112.667,105.516,112.475,104.806,112.094 M108.558,110.641
		c0.405-0.23,0.724-0.553,0.955-0.967c0.231-0.413,0.347-0.883,0.347-1.41c0-0.528-0.116-0.998-0.347-1.412
		c-0.231-0.414-0.55-0.735-0.955-0.967c-0.406-0.231-0.859-0.346-1.362-0.346c-0.503,0-0.957,0.115-1.362,0.346
		c-0.406,0.232-0.724,0.553-0.955,0.967c-0.232,0.414-0.347,0.884-0.347,1.412c0,0.527,0.115,0.997,0.347,1.41
		c0.231,0.414,0.549,0.737,0.955,0.967c0.405,0.231,0.859,0.347,1.362,0.347C107.699,110.988,108.152,110.872,108.558,110.641"/>
	<path clip-path="url(#SVGID_2_)" fill="#754C28" d="M117.978,112.101c-0.702-0.377-1.253-0.9-1.654-1.569
		c-0.402-0.67-0.602-1.425-0.602-2.268c0-0.844,0.2-1.6,0.602-2.269c0.401-0.669,0.952-1.192,1.654-1.569
		c0.701-0.378,1.49-0.566,2.366-0.566c0.738,0,1.405,0.13,2,0.389c0.596,0.26,1.097,0.633,1.503,1.12l-1.265,1.167
		c-0.576-0.665-1.29-0.997-2.141-0.997c-0.527,0-0.997,0.115-1.411,0.346c-0.413,0.232-0.736,0.553-0.967,0.967
		c-0.231,0.415-0.347,0.884-0.347,1.412c0,0.527,0.116,0.997,0.347,1.41c0.231,0.414,0.554,0.737,0.967,0.967
		c0.414,0.231,0.884,0.347,1.411,0.347c0.851,0,1.565-0.337,2.141-1.01l1.265,1.168c-0.406,0.495-0.909,0.872-1.509,1.131
		c-0.6,0.26-1.269,0.39-2.006,0.39C119.464,112.667,118.679,112.478,117.978,112.101"/>
	<rect x="128.092" y="104.006" clip-path="url(#SVGID_2_)" fill="#754C28" width="1.971" height="8.514"/>
	<polygon clip-path="url(#SVGID_2_)" fill="#754C28" points="141.592,110.939 141.592,112.52 135,112.52 135,104.006 
		141.434,104.006 141.434,105.587 136.959,105.587 136.959,107.436 140.911,107.436 140.911,108.968 136.959,108.968 
		136.959,110.939 	"/>
	<polygon clip-path="url(#SVGID_2_)" fill="#754C28" points="147.844,105.611 145.119,105.611 145.119,104.006 152.539,104.006 
		152.539,105.611 149.815,105.611 149.815,112.52 147.844,112.52 	"/>
	<polygon clip-path="url(#SVGID_2_)" fill="#754C28" points="160.445,109.503 160.445,112.52 158.474,112.52 158.474,109.479 
		155.178,104.005 157.27,104.005 159.545,107.788 161.819,104.005 163.753,104.005 	"/>
	<path clip-path="url(#SVGID_2_)" fill="#754C28" d="M23.866,83.859c-0.7-1.031-2.034-1.769-4-2.213
		c1.765-0.404,2.946-0.983,3.545-1.736c0.599-0.754,0.899-2.086,0.899-3.997c0-2.826-0.424-4.875-1.272-6.147
		c-0.849-1.272-1.963-2.116-3.344-2.533c-1.38-0.417-3.41-0.626-6.089-0.626H5.12H0.001c0,0,5.136,2.496,5.119,7.962V99.31h9.838
		c3.42,0,5.683-0.195,6.787-0.586c1.104-0.39,1.909-1.118,2.414-2.183c0.505-1.064,0.757-2.701,0.757-4.911v-3.032
		C24.916,86.469,24.566,84.889,23.866,83.859 M16.412,90.665c0,1.319-0.165,2.148-0.495,2.484c-0.33,0.337-1.094,0.525-2.292,0.566
		v-9.15c1.265,0.04,2.046,0.209,2.343,0.504c0.296,0.297,0.444,1.145,0.444,2.545V90.665z M16.069,78.838
		c-0.23,0.411-0.761,0.616-1.596,0.616c-0.202,0-0.485,0.007-0.848,0.02v-7.272c0.875,0.014,1.464,0.074,1.767,0.182
		c0.303,0.108,0.549,0.367,0.738,0.778c0.188,0.41,0.282,1.128,0.282,2.151C16.412,77.252,16.298,78.427,16.069,78.838"/>
	<path clip-path="url(#SVGID_2_)" fill="#754C28" d="M163.799,75.626c-0.222-0.949-0.835-1.788-1.838-2.515
		c-1.003-0.727-2.219-1.09-3.646-1.09c-0.93,0-1.801,0.162-2.616,0.485c-0.815,0.325-1.572,0.811-2.272,1.458
		c0-4.063-3.295-7.358-7.358-7.358h-0.803h-5.12c0,0,5.136,2.497,5.12,7.963V99.31h8.161V80.181c0-1.36,0.087-2.269,0.262-2.727
		c0.175-0.457,0.511-0.687,1.01-0.687c0.539,0,0.886,0.222,1.04,0.667c0.155,0.444,0.233,1.448,0.233,3.01V99.31h8.161V80.827
		C164.133,78.309,164.022,76.576,163.799,75.626"/>
	<path clip-path="url(#SVGID_2_)" fill="#C18545" d="M244.106,54.274L244.106,54.274v25.61h-8.537V62.812
		C235.569,58.096,239.391,54.274,244.106,54.274"/>
	<path clip-path="url(#SVGID_2_)" fill="#C18545" d="M233.004,61.89L233.004,61.89v17.995h-8.537v-9.458
		C224.467,65.712,228.289,61.89,233.004,61.89"/>
	<path clip-path="url(#SVGID_2_)" fill="#C18545" d="M221.888,69.505L221.888,69.505v10.38h-8.538v-1.843
		C213.35,73.327,217.173,69.505,221.888,69.505"/>
	<path clip-path="url(#SVGID_2_)" fill="#C18545" d="M253.991,93.289c0,4.148-3.363,7.51-7.511,7.51c-4.147,0-7.51-3.362-7.51-7.51
		c0-4.148,3.363-7.511,7.51-7.511C250.628,85.778,253.991,89.141,253.991,93.289"/>
	<path clip-path="url(#SVGID_2_)" fill="#C18545" d="M171.652,113.304h4.441c-0.728-2.821-1.023-5.725-0.855-8.586
		c0.226-3.596,1.149-7.088,2.692-10.236c1.539-3.149,3.69-5.952,6.26-8.218c2.575-2.262,5.563-3.982,8.719-5.051
		c3.158-1.074,5.926-1.272,9.734-1.328h8.139v-1.843c0-4.489-3.467-8.158-7.868-8.501c-0.09-0.007-1.582-0.078-3.067,0.145
		c-3.524,0.53-7.208,1.532-10.447,3.064c-4.106,1.935-7.775,4.669-10.763,7.962c-2.985,3.296-5.287,7.15-6.752,11.263
		c-1.472,4.112-2.094,8.476-1.882,12.743C170.157,107.656,170.735,110.547,171.652,113.304"/>
	<path clip-path="url(#SVGID_2_)" fill="#C18545" d="M224.689,125.871c-2.481,2.315-5.356,4.183-8.429,5.563
		c-3.071,1.397-6.389,2.19-9.722,2.486c-1.667,0.166-3.349,0.144-5.012,0l-1.249-0.085l-1.234-0.21
		c-0.819-0.159-1.654-0.229-2.449-0.489c-2.746-0.642-5.362-1.746-7.781-3.161h-4.178c1.983,1.258,4.079,2.313,6.269,3.083
		c0.157,0.055,0.32,0.089,0.478,0.142c1.583,0.611,3.213,1.096,4.875,1.421c0.843,0.239,1.724,0.285,2.585,0.418l1.298,0.169
		l1.308,0.042c1.74,0.085,3.486,0.042,5.209-0.194c3.444-0.435,6.831-1.384,9.925-2.932c3.096-1.531,5.948-3.544,8.372-5.98
		c2.412-2.445,4.418-5.274,5.911-8.344C229.259,120.813,227.159,123.547,224.689,125.871"/>
	<polygon clip-path="url(#SVGID_2_)" fill="#C18545" points="110.159,122.559 5.12,121.036 110.159,119.513 	"/>
	<path clip-path="url(#SVGID_2_)" fill="#C18545" d="M121.469,116.432c0.802,0.348,1.421,0.846,1.857,1.493
		c0.435,0.647,0.653,1.408,0.653,2.282c0,0.874-0.218,1.631-0.653,2.272c-0.436,0.642-1.055,1.137-1.857,1.485
		c-0.802,0.349-1.747,0.523-2.836,0.523h-2.098v3.035h-3.403v-11.613h5.501C119.722,115.909,120.667,116.083,121.469,116.432
		 M120.008,121.459c0.355-0.293,0.533-0.711,0.533-1.252c0-0.542-0.178-0.963-0.533-1.262c-0.355-0.299-0.882-0.447-1.582-0.447
		h-1.891v3.4h1.891C119.126,121.898,119.653,121.752,120.008,121.459"/>
	<polygon clip-path="url(#SVGID_2_)" fill="#C18545" points="137.5,115.91 137.5,127.523 134.096,127.523 134.096,122.994 
		129.455,122.994 129.455,127.523 126.051,127.523 126.051,115.91 129.455,115.91 129.455,120.274 134.096,120.274 134.096,115.91 	
		"/>
	<path clip-path="url(#SVGID_2_)" fill="#C18545" d="M148.972,125.267h-5.088l-0.946,2.256h-3.473l5.312-11.613h3.352l5.329,11.613
		h-3.541L148.972,125.267z M147.975,122.845l-1.547-3.717l-1.547,3.717H147.975z"/>
	<path clip-path="url(#SVGID_2_)" fill="#C18545" d="M157.63,127.407c-0.917-0.232-1.662-0.542-2.234-0.929l1.117-2.423
		c0.538,0.344,1.163,0.621,1.873,0.83c0.711,0.21,1.41,0.315,2.098,0.315c1.306,0,1.96-0.315,1.96-0.945
		c0-0.332-0.187-0.578-0.559-0.739c-0.373-0.16-0.971-0.329-1.797-0.505c-0.905-0.188-1.662-0.39-2.269-0.606
		c-0.607-0.216-1.129-0.561-1.564-1.038c-0.436-0.475-0.654-1.116-0.654-1.924c0-0.707,0.201-1.346,0.602-1.916
		c0.402-0.569,1-1.02,1.796-1.352c0.797-0.332,1.774-0.498,2.931-0.498c0.792,0,1.571,0.086,2.339,0.257
		c0.767,0.172,1.444,0.424,2.028,0.755l-1.049,2.439c-1.145-0.597-2.257-0.896-3.334-0.896c-0.677,0-1.169,0.097-1.479,0.29
		c-0.309,0.194-0.464,0.446-0.464,0.755c0,0.31,0.183,0.543,0.55,0.697c0.367,0.156,0.957,0.315,1.771,0.481
		c0.917,0.188,1.676,0.39,2.277,0.605c0.603,0.217,1.123,0.56,1.565,1.03c0.441,0.47,0.662,1.109,0.662,1.916
		c0,0.697-0.201,1.327-0.602,1.891c-0.402,0.564-1.002,1.015-1.805,1.352c-0.802,0.338-1.777,0.507-2.923,0.507
		C159.493,127.756,158.547,127.639,157.63,127.407"/>
	<polygon clip-path="url(#SVGID_2_)" fill="#C18545" points="177.907,124.985 177.907,127.523 168.246,127.523 168.246,115.91 
		177.683,115.91 177.683,118.448 171.615,118.448 171.615,120.406 176.961,120.406 176.961,122.861 171.615,122.861 
		171.615,124.985 	"/>
	<rect x="184.127" y="115.482" clip-path="url(#SVGID_2_)" fill="#C18545" width="3.405" height="12.038"/>
	<path clip-path="url(#SVGID_2_)" fill="#C18545" d="M255.208,46.66c-4.715,0-8.537,3.822-8.537,8.537v24.688h8.537V54.622
		c-0.017-5.466,5.12-7.962,5.12-7.962H255.208z"/>
	<path clip-path="url(#SVGID_2_)" fill="#C18545" d="M191.143,48.734v17.073h8.537v-25.61
		C194.965,40.197,191.143,44.019,191.143,48.734"/>
	<path clip-path="url(#SVGID_2_)" fill="#C18545" d="M180.04,56.349v9.458h8.538V47.812C183.862,47.812,180.04,51.634,180.04,56.349
		"/>
	<path clip-path="url(#SVGID_2_)" fill="#C18545" d="M168.938,55.427c-3.258,0.21-6.577-0.254-9.734-1.329
		c-3.156-1.068-6.144-2.788-8.719-5.051c-2.57-2.266-4.721-5.068-6.26-8.217c-1.543-3.148-2.466-6.64-2.692-10.236
		c-0.211-3.594,0.277-7.261,1.483-10.736c0.446-1.292,1.022-2.541,1.659-3.764c0.691-1.209,1.453-2.381,2.326-3.48
		c4.103-5.161,9.967-8.99,16.492-10.511c0.806-0.226,1.643-0.302,2.465-0.463c0.822-0.176,1.66-0.206,2.497-0.265l1.256-0.087
		c0.419-0.032,0.839,0.004,1.26,0.003l1.26,0.026l1.256,0.112c3.349,0.318,6.661,1.188,9.727,2.627
		c3.065,1.429,5.932,3.338,8.376,5.714c2.443,2.374,4.504,5.156,6.057,8.213c-1.438-3.112-3.404-5.988-5.788-8.482
		c-2.383-2.496-5.227-4.551-8.314-6.131c-3.087-1.589-6.466-2.617-9.926-3.075L172.32,0.13l-1.308-0.076
		c-0.436-0.015-0.873-0.067-1.31-0.051l-1.311,0.041c-0.875,0.029-1.754,0.03-2.62,0.18c-0.865,0.135-1.748,0.187-2.602,0.391
		c-1.016,0.198-2.016,0.464-3.007,0.766c-0.998,0.241-1.989,0.529-2.963,0.873c-3.794,1.334-7.36,3.442-10.416,6.186
		c-3.052,2.746-5.591,6.126-7.394,9.914c-1.808,3.783-2.867,7.973-3.091,12.24c-0.213,4.266,0.41,8.63,1.882,12.743
		c1.466,4.112,3.768,7.967,6.752,11.263c2.987,3.293,6.656,6.027,10.763,7.962c4.102,1.941,8.64,3.021,13.243,3.245h8.538v-1.843
		C177.476,59.249,173.653,55.427,168.938,55.427"/>
	<path clip-path="url(#SVGID_2_)" fill="#C18545" d="M210.782,32.581c-4.715,0-8.537,3.822-8.537,8.537v24.689h8.537V40.544
		c-0.017-5.465,5.12-7.962,5.12-7.962H210.782z"/>
	<path clip-path="url(#SVGID_2_)" fill="#C18545" d="M207.507,88.722c-2.427-0.41-5.26-0.415-7.89-0.067
		c-2.667,0.357-5.289,1.127-7.722,2.329c-1.253,0.545-2.359,1.348-3.506,2.102c-1.049,0.875-2.161,1.709-3.056,2.772
		c-1.011,0.966-1.774,2.134-2.602,3.268c-0.805,1.149-1.385,2.439-2.096,3.667c0.564-1.289,1.004-2.658,1.684-3.909
		c0.703-1.238,1.355-2.528,2.28-3.64c0.808-1.208,1.857-2.208,2.871-3.261c1.111-0.931,2.211-1.927,3.483-2.665
		c2.471-1.592,5.236-2.759,8.114-3.481c2.914-0.703,5.783-1.074,8.976-0.906c1.059,0.057,1.872,0.96,1.816,2.019
		c-0.057,1.059-0.96,1.872-2.019,1.815c-0.073-0.003-0.146-0.011-0.217-0.023L207.507,88.722z"/>
	<path clip-path="url(#SVGID_2_)" fill="#C18545" d="M179.269,72.576c-0.503-0.838-1.591-1.11-2.429-0.607l-0.055,0.033
		c-2.093,1.256-3.755,3.022-4.852,5.025c0.024-0.622-0.018-1.27-0.175-1.943c-0.242-1.088-0.89-2.224-1.818-3.024l-0.14-0.121
		c-0.124-0.106-0.267-0.196-0.426-0.262c-0.829-0.35-1.783,0.04-2.132,0.869c-0.349,0.828,0.04,1.783,0.869,2.132
		c0.558,0.235,1.029,0.617,1.397,1.228c0.368,0.604,0.597,1.403,0.719,2.247c0.207,1.449,0.168,3.002,0.084,4.551
		c-0.001,0.012-0.001,0.023-0.002,0.036c-0.014,0.259-0.029,0.518-0.045,0.776c0.004-0.01,0.007-0.02,0.011-0.029
		c0,0.009-0.001,0.019-0.002,0.029c0.026-0.085,0.056-0.167,0.083-0.252c0.14-0.381,0.278-0.763,0.413-1.147
		c0.616-1.516,1.46-2.894,2.542-3.996c1.386-1.441,3.122-2.446,4.9-2.924c0.152-0.042,0.309-0.107,0.451-0.192
		C179.5,74.502,179.772,73.414,179.269,72.576"/>
</g>
</svg>
