<?xml version="1.0" encoding="utf-8"?>
<!-- Generator: Adobe Illustrator 17.0.0, SVG Export Plug-In . SVG Version: 6.00 Build 0)  -->
<!DOCTYPE svg PUBLIC "-//W3C//DTD SVG 1.0//EN" "http://www.w3.org/TR/2001/REC-SVG-20010904/DTD/svg10.dtd">
<svg version="1.0" id="Layer_1" xmlns="http://www.w3.org/2000/svg" xmlns:xlink="http://www.w3.org/1999/xlink" x="0px" y="0px"
	 width="24px" height="24px" viewBox="0 0 24 24" enable-background="new 0 0 24 24" xml:space="preserve">
<g>
	<g>
		<path fill="#9AA6AC" d="M18.066,15.766c-0.762-0.754-1.713-0.754-2.469,0c-0.576,0.571-1.154,1.143-1.722,1.725
			c-0.154,0.16-0.285,0.193-0.475,0.088c-0.373-0.205-0.77-0.369-1.13-0.591c-1.674-1.054-3.076-2.406-4.317-3.929
			c-0.615-0.757-1.164-1.567-1.547-2.479c-0.078-0.183-0.064-0.305,0.088-0.455c0.577-0.559,1.139-1.131,1.707-1.703
			C8.99,7.626,8.99,6.694,8.195,5.895c-0.45-0.457-0.901-0.904-1.352-1.359C6.378,4.069,5.917,3.6,5.446,3.138
			C4.685,2.397,3.733,2.397,2.977,3.144C2.396,3.716,1.838,4.304,1.245,4.867C0.698,5.385,0.421,6.021,0.364,6.762
			C0.271,7.97,0.567,9.109,0.982,10.22c0.856,2.3,2.154,4.342,3.731,6.214c2.129,2.532,4.671,4.535,7.643,5.979
			c1.339,0.651,2.727,1.15,4.235,1.233c1.036,0.058,1.939-0.205,2.663-1.015c0.494-0.551,1.052-1.056,1.576-1.584
			c0.776-0.787,0.781-1.738,0.009-2.514C19.919,17.607,18.993,16.686,18.066,15.766z"/>
		<path fill="#9AA6AC" d="M17.139,11.899l1.791-0.305c-0.282-1.645-1.057-3.133-2.236-4.317c-1.248-1.247-2.824-2.032-4.561-2.274
			l-0.251,1.799c1.343,0.19,2.565,0.794,3.53,1.761C16.324,9.473,16.921,10.627,17.139,11.899z"/>
		<path fill="#9AA6AC" d="M19.938,4.119c-2.066-2.066-4.681-3.37-7.566-3.773l-0.252,1.8c2.493,0.348,4.752,1.479,6.537,3.259
			c1.693,1.693,2.805,3.832,3.208,6.183l1.789-0.305C23.182,8.556,21.898,6.084,19.938,4.119z"/>
	</g>
</g>
</svg>
